<?xml version="1.0" standalone="no"?>
<!DOCTYPE svg PUBLIC "-//W3C//DTD SVG 20010904//EN"
 "http://www.w3.org/TR/2001/REC-SVG-20010904/DTD/svg10.dtd">
<svg version="1.0" xmlns="http://www.w3.org/2000/svg"
 width="700.000000pt" height="700.000000pt" viewBox="0 0 700.000000 700.000000"
 preserveAspectRatio="xMidYMid meet">
<metadata>
Created by potrace 1.14, written by Peter Selinger 2001-2017
</metadata>
<g transform="translate(0.000000,700.000000) scale(0.100000,-0.100000)"
fill="#000000" stroke="none">
<path d="M2186 6560 c-1 -3 -2 -101 -1 -217 l0 -213 -50 -1 c-27 0 -125 0
-217 0 l-168 -1 0 -219 0 -219 -220 0 -220 0 0 -220 0 -220 -219 0 -219 0 0
-1095 -1 -1095 220 0 219 0 0 -1095 0 -1095 218 1 217 1 5 -219 5 -218 210 -1
c116 -1 212 -2 215 -3 3 0 6 -97 5 -214 l0 -212 1097 -3 1096 -2 -1 208 c0
114 2 212 5 218 4 6 86 9 210 9 112 -1 208 0 213 2 7 2 10 82 10 218 0 209 0
215 20 216 11 0 109 0 218 0 l197 0 0 440 0 439 220 0 220 0 0 875 0 875 219
0 220 0 -1 875 0 875 -219 0 -219 0 0 220 0 220 -438 0 -438 0 1 208 c1 114 0
212 -3 219 -3 9 -163 12 -650 12 -356 0 -650 1 -654 1 -4 0 -9 98 -10 218 l-3
217 -653 0 c-360 0 -655 -2 -656 -5z"/>
</g>
</svg>
